<mxfile host="app.diagrams.net" modified="2025-03-06T04:22:00.000Z" agent="Mozilla/5.0" version="21.0.0" type="device">
<diagram name="System Overview" id="role-based-system">
<mxGraphModel dx="1200" dy="800" grid="1" gridSize="10" guides="1" tooltips="1" connect="1" arrows="1" fold="1" page="1" pageScale="1" pageWidth="1100" pageHeight="1500" math="0" shadow="0">
<root>
<mxCell id="0"/>
<mxCell id="1" parent="0"/>

<!-- Actor Hierarchy -->
<mxCell id="2" value="SystemAdmin" style="swimlane;fontStyle=1;align=center;verticalAlign=top;childLayout=stackLayout;horizontal=1;startSize=26;horizontalStack=0;resizeParent=1;resizeParentMax=0;resizeLast=0;collapsible=1;marginBottom=0;" vertex="1" parent="1">
<mxGeometry x="40" y="40" width="200" height="100" as="geometry"/>
</mxCell>
<mxCell id="3" value="+ manageSystemSettings()&#10;+ manageSecurityPolicy()&#10;+ manageBackups()&#10;+ auditSystem()" style="text;strokeColor=none;fillColor=none;align=left;verticalAlign=top;spacingLeft=4;spacingRight=4;overflow=hidden;rotatable=0;points=[[0,0.5],[1,0.5]];portConstraint=eastwest;" vertex="1" parent="2">
<mxGeometry y="26" width="200" height="74" as="geometry"/>
</mxCell>

<mxCell id="4" value="DevelopmentStaff" style="swimlane;fontStyle=1;align=center;verticalAlign=top;childLayout=stackLayout;horizontal=1;startSize=26;horizontalStack=0;resizeParent=1;resizeParentMax=0;resizeLast=0;collapsible=1;marginBottom=0;" vertex="1" parent="1">
<mxGeometry x="280" y="40" width="200" height="100" as="geometry"/>
</mxCell>
<mxCell id="5" value="+ implementFeatures()&#10;+ fixBugs()&#10;+ optimizePerformance()&#10;+ manageCodebase()" style="text;strokeColor=none;fillColor=none;align=left;verticalAlign=top;spacingLeft=4;spacingRight=4;overflow=hidden;rotatable=0;points=[[0,0.5],[1,0.5]];portConstraint=eastwest;" vertex="1" parent="4">
<mxGeometry y="26" width="200" height="74" as="geometry"/>
</mxCell>

<!-- Core Domain Models -->
<mxCell id="6" value="Member" style="swimlane;fontStyle=1;align=center;verticalAlign=top;childLayout=stackLayout;horizontal=1;startSize=26;horizontalStack=0;resizeParent=1;resizeParentMax=0;resizeLast=0;collapsible=1;marginBottom=0;" vertex="1" parent="1">
<mxGeometry x="40" y="200" width="200" height="120" as="geometry"/>
</mxCell>
<mxCell id="7" value="+ id: string&#10;+ name: string&#10;+ email: string&#10;+ groups: Group[]&#10;+ points: Point[]" style="text;strokeColor=none;fillColor=none;align=left;verticalAlign=top;spacingLeft=4;spacingRight=4;overflow=hidden;rotatable=0;points=[[0,0.5],[1,0.5]];portConstraint=eastwest;" vertex="1" parent="6">
<mxGeometry y="26" width="200" height="94" as="geometry"/>
</mxCell>

<mxCell id="8" value="Group" style="swimlane;fontStyle=1;align=center;verticalAlign=top;childLayout=stackLayout;horizontal=1;startSize=26;horizontalStack=0;resizeParent=1;resizeParentMax=0;resizeLast=0;collapsible=1;marginBottom=0;" vertex="1" parent="1">
<mxGeometry x="280" y="200" width="200" height="120" as="geometry"/>
</mxCell>
<mxCell id="9" value="+ id: string&#10;+ name: string&#10;+ parent: Group&#10;+ children: Group[]&#10;+ members: Member[]" style="text;strokeColor=none;fillColor=none;align=left;verticalAlign=top;spacingLeft=4;spacingRight=4;overflow=hidden;rotatable=0;points=[[0,0.5],[1,0.5]];portConstraint=eastwest;" vertex="1" parent="8">
<mxGeometry y="26" width="200" height="94" as="geometry"/>
</mxCell>

<mxCell id="10" value="Bookmark" style="swimlane;fontStyle=1;align=center;verticalAlign=top;childLayout=stackLayout;horizontal=1;startSize=26;horizontalStack=0;resizeParent=1;resizeParentMax=0;resizeLast=0;collapsible=1;marginBottom=0;" vertex="1" parent="1">
<mxGeometry x="520" y="200" width="200" height="120" as="geometry"/>
</mxCell>
<mxCell id="11" value="+ id: string&#10;+ url: string&#10;+ title: string&#10;+ folder: Folder&#10;+ category: Category" style="text;strokeColor=none;fillColor=none;align=left;verticalAlign=top;spacingLeft=4;spacingRight=4;overflow=hidden;rotatable=0;points=[[0,0.5],[1,0.5]];portConstraint=eastwest;" vertex="1" parent="10">
<mxGeometry y="26" width="200" height="94" as="geometry"/>
</mxCell>

<!-- Domain Services -->
<mxCell id="12" value="Article" style="swimlane;fontStyle=1;align=center;verticalAlign=top;childLayout=stackLayout;horizontal=1;startSize=26;horizontalStack=0;resizeParent=1;resizeParentMax=0;resizeLast=0;collapsible=1;marginBottom=0;" vertex="1" parent="1">
<mxGeometry x="40" y="360" width="200" height="120" as="geometry"/>
</mxCell>
<mxCell id="13" value="+ id: string&#10;+ content: string&#10;+ newspaper: Newspaper&#10;+ category: Category&#10;+ tags: Tag[]" style="text;strokeColor=none;fillColor=none;align=left;verticalAlign=top;spacingLeft=4;spacingRight=4;overflow=hidden;rotatable=0;points=[[0,0.5],[1,0.5]];portConstraint=eastwest;" vertex="1" parent="12">
<mxGeometry y="26" width="200" height="94" as="geometry"/>
</mxCell>

<mxCell id="14" value="Newspaper" style="swimlane;fontStyle=1;align=center;verticalAlign=top;childLayout=stackLayout;horizontal=1;startSize=26;horizontalStack=0;resizeParent=1;resizeParentMax=0;resizeLast=0;collapsible=1;marginBottom=0;" vertex="1" parent="1">
<mxGeometry x="280" y="360" width="200" height="120" as="geometry"/>
</mxCell>
<mxCell id="15" value="+ id: string&#10;+ title: string&#10;+ articles: Article[]&#10;+ category: Category&#10;+ tags: Tag[]" style="text;strokeColor=none;fillColor=none;align=left;verticalAlign=top;spacingLeft=4;spacingRight=4;overflow=hidden;rotatable=0;points=[[0,0.5],[1,0.5]];portConstraint=eastwest;" vertex="1" parent="14">
<mxGeometry y="26" width="200" height="94" as="geometry"/>
</mxCell>

<!-- Supporting Elements -->
<mxCell id="16" value="Tag" style="swimlane;fontStyle=1;align=center;verticalAlign=top;childLayout=stackLayout;horizontal=1;startSize=26;horizontalStack=0;resizeParent=1;resizeParentMax=0;resizeLast=0;collapsible=1;marginBottom=0;" vertex="1" parent="1">
<mxGeometry x="520" y="360" width="200" height="100" as="geometry"/>
</mxCell>
<mxCell id="17" value="+ id: string&#10;+ name: string&#10;+ type: TagType&#10;+ creator: Member | Staff" style="text;strokeColor=none;fillColor=none;align=left;verticalAlign=top;spacingLeft=4;spacingRight=4;overflow=hidden;rotatable=0;points=[[0,0.5],[1,0.5]];portConstraint=eastwest;" vertex="1" parent="16">
<mxGeometry y="26" width="200" height="74" as="geometry"/>
</mxCell>

<!-- Relationships -->
<mxCell id="18" value="" style="endArrow=diamondThin;endFill=1;endSize=12;html=1;rounded=0;entryX=1;entryY=0.5;entryDx=0;entryDy=0;exitX=0;exitY=0.5;exitDx=0;exitDy=0;" edge="1" parent="1" source="9" target="7">
<mxGeometry width="160" relative="1" as="geometry"/>
</mxCell>

</root>
</mxGraphModel>
</diagram>
</mxfile>